<?xml version="1.0" encoding="UTF-8"?>
<svg width="140" height="32" viewBox="0 0 140 32" fill="none" xmlns="http://www.w3.org/2000/svg">
  <path d="M16 0C7.163 0 0 7.163 0 16C0 24.837 7.163 32 16 32C24.837 32 32 24.837 32 16C32 7.163 24.837 0 16 0ZM16 24C11.582 24 8 20.418 8 16C8 11.582 11.582 8 16 8C20.418 8 24 11.582 24 16C24 20.418 20.418 24 16 24Z" fill="#7BC144"/>
  <path d="M48 8V24H52V8H48ZM64 12H60V20H64V12ZM76 12H72V20H76V12ZM88 12H84V20H88V12Z" fill="#0C1F3F"/>
  <path d="M100 8V24H104V8H100ZM116 12H112V20H116V12ZM128 12H124V20H128V12Z" fill="#0C1F3F"/>
</svg>
